<svg width="131" height="29" viewBox="0 0 131 29" fill="none" xmlns="http://www.w3.org/2000/svg">
<g clip-path="url(#clip0_647_1296)">
<path d="M47.4501 11.5997C46.6165 11.6455 45.9791 12.3328 46.0281 13.1118C46.0771 13.8449 46.7146 14.4406 47.4501 14.4406C48.2838 14.3948 48.9212 13.7074 48.8722 12.9285C48.8232 12.1953 48.2347 11.5997 47.4501 11.5997Z" fill="black"/>
<path d="M50.825 7.88536C50.825 8.66305 50.2256 9.30349 49.4979 9.30349H44.8316C44.1038 9.34924 43.4617 8.75454 43.4189 7.97685C43.3761 7.19916 43.9326 6.51297 44.6604 6.46722C44.7032 6.46722 44.746 6.46722 44.8316 6.46722H49.4979C50.2256 6.42148 50.825 7.10767 50.825 7.88536Z" fill="black"/>
<path d="M54.6697 11.636H53.131C52.4603 11.5902 51.8685 12.1853 51.829 12.9636C51.7896 13.7419 52.3025 14.4286 52.9732 14.4744C53.0127 14.4744 53.0521 14.4744 53.131 14.4744H54.6697C55.3405 14.4286 55.8534 13.7419 55.8139 12.9636C55.8139 12.2311 55.301 11.636 54.6697 11.636Z" fill="black"/>
<path d="M55.4301 17.1968C55.4301 17.912 54.8442 18.501 54.1329 18.501H40.3239C39.6125 18.5431 39.0685 19.1741 39.1104 19.8894C39.1522 20.5625 39.6962 21.1095 40.3239 21.1095H49.8228C50.5342 21.0674 51.1618 21.6143 51.2037 22.3295C51.2455 23.0448 50.7015 23.6758 49.9902 23.7179C49.9483 23.7179 49.9065 23.7179 49.8228 23.7179H44.0063C43.8808 23.9283 43.7134 24.1386 43.546 24.349C42.3325 25.8215 40.575 26.7471 38.6501 26.9995H6.68026C3.1234 27.0416 0.194231 24.2228 0.152386 20.6467C0.11054 17.1126 2.87233 14.2097 6.3455 14.0834C6.3455 9.41345 10.1116 5.62697 14.7146 5.62697C16.0118 5.62697 17.309 5.92147 18.4806 6.51048C22.3304 1.46184 29.5697 0.494189 34.5911 4.40688C34.9677 4.70139 35.3025 4.99589 35.6372 5.33247H39.7381C40.4494 5.29039 41.0771 5.83733 41.119 6.55255C41.1608 7.26778 40.6168 7.89886 39.9055 7.94093C39.8636 7.94093 39.8218 7.94093 39.7381 7.94093H35.5954C34.884 7.89886 34.2563 8.44579 34.2145 9.16102C34.1726 9.87624 34.7166 10.5073 35.428 10.5494C35.4698 10.5494 35.5117 10.5494 35.5954 10.5494H43.1275C43.8389 10.5073 44.4666 11.0543 44.5084 11.7695C44.5503 12.4847 44.0063 13.1158 43.2949 13.1579C43.2531 13.1579 43.2112 13.1579 43.1275 13.1579H36.9344C36.2231 13.1999 35.6791 13.831 35.7209 14.5462C35.7628 15.2194 36.3068 15.7663 36.9344 15.7663H54.091C54.8024 15.8505 55.3882 16.4395 55.4301 17.1968Z" fill="black"/>
</g>
<path d="M71.0511 4.72727L65.4261 25.625H62.2983L67.9233 4.72727H71.0511Z" fill="black"/>
<path d="M79.517 23V5.54545H91.2784V8.58807H83.2074V12.7472H90.6733V15.7898H83.2074V19.9574H91.3125V23H79.517ZM98.968 23.2131C97.9737 23.2131 97.0732 22.9574 96.2663 22.446C95.4652 21.929 94.8288 21.1705 94.3572 20.1705C93.8913 19.1648 93.6584 17.9318 93.6584 16.4716C93.6584 14.9716 93.8999 13.7244 94.3828 12.7301C94.8658 11.7301 95.5078 10.983 96.3089 10.4886C97.1158 9.98864 97.9993 9.73864 98.9595 9.73864C99.6925 9.73864 100.303 9.86364 100.792 10.1136C101.286 10.358 101.684 10.6648 101.985 11.0341C102.292 11.3977 102.525 11.7557 102.684 12.108H102.795V5.54545H106.417V23H102.837V20.9034H102.684C102.513 21.267 102.272 21.6278 101.96 21.9858C101.653 22.3381 101.252 22.6307 100.758 22.8636C100.269 23.0966 99.6726 23.2131 98.968 23.2131ZM100.119 20.3239C100.704 20.3239 101.198 20.1648 101.602 19.8466C102.011 19.5227 102.323 19.071 102.539 18.4915C102.761 17.9119 102.871 17.233 102.871 16.4545C102.871 15.6761 102.763 15 102.548 14.4261C102.332 13.8523 102.019 13.4091 101.61 13.0966C101.201 12.7841 100.704 12.6278 100.119 12.6278C99.522 12.6278 99.0192 12.7898 98.6101 13.1136C98.201 13.4375 97.8913 13.8864 97.6811 14.4602C97.4709 15.0341 97.3658 15.6989 97.3658 16.4545C97.3658 17.2159 97.4709 17.8892 97.6811 18.4744C97.897 19.054 98.2067 19.5085 98.6101 19.8381C99.0192 20.1619 99.522 20.3239 100.119 20.3239ZM117.797 17.4261V9.90909H121.428V23H117.942V20.6222H117.805C117.51 21.3892 117.018 22.0057 116.331 22.4716C115.649 22.9375 114.817 23.1705 113.834 23.1705C112.959 23.1705 112.189 22.9716 111.524 22.5739C110.859 22.1761 110.339 21.6108 109.964 20.8778C109.595 20.1449 109.408 19.267 109.402 18.2443V9.90909H113.033V17.5966C113.038 18.3693 113.246 18.9801 113.655 19.429C114.064 19.8778 114.612 20.1023 115.3 20.1023C115.737 20.1023 116.146 20.0028 116.527 19.804C116.908 19.5994 117.214 19.2983 117.447 18.9006C117.686 18.5028 117.803 18.0114 117.797 17.4261ZM126.454 23.2216C125.891 23.2216 125.408 23.0227 125.005 22.625C124.607 22.2216 124.408 21.7386 124.408 21.1761C124.408 20.6193 124.607 20.142 125.005 19.7443C125.408 19.3466 125.891 19.1477 126.454 19.1477C126.999 19.1477 127.477 19.3466 127.886 19.7443C128.295 20.142 128.499 20.6193 128.499 21.1761C128.499 21.5511 128.403 21.8949 128.21 22.2074C128.022 22.5142 127.775 22.7614 127.468 22.9489C127.161 23.1307 126.823 23.2216 126.454 23.2216Z" fill="black"/>
<defs>
<clipPath id="clip0_647_1296">
<rect width="56" height="25" fill="white" transform="translate(0 2)"/>
</clipPath>
</defs>
</svg>
